HIERARCHY
ROOT hip
{
	OFFSET 0.000000 0.000000 0.000000 
	CHANNELS 6 Xposition Yposition Zposition Xrotation Zrotation Yrotation
	JOINT abdomen
	{
		OFFSET 0.000000 3.402643 0.000000 
		CHANNELS 3 Xrotation Zrotation Yrotation
		JOINT chest
		{
			OFFSET 0.000000 8.438565 -0.680529 
			CHANNELS 3 Xrotation Zrotation Yrotation
			JOINT neck
			{
				OFFSET 0.000000 10.207942 -0.272212 
				CHANNELS 3 Xrotation Zrotation Yrotation
				JOINT head
				{
					OFFSET 0.000000 3.130431 0.000000 
					CHANNELS 3 Xrotation Zrotation Yrotation
					End Site
					{
						OFFSET 0.000000 3.130435 0.000000 
					}
				}
			}
			JOINT lCollar
			{
				OFFSET 3.470700 6.669187 -0.816635 
				CHANNELS 3 Yrotation Zrotation Xrotation
				JOINT lShldr
				{
					OFFSET 3.198488 0.000000 0.000000 
					CHANNELS 3 Zrotation Yrotation Xrotation
					JOINT lForeArm
					{
						OFFSET 10.139888 0.000000 0.000000 
						CHANNELS 3 Yrotation Zrotation Xrotation
						JOINT lHand
						{
							OFFSET 8.370511 0.000000 0.000000 
							CHANNELS 3 Zrotation Yrotation Xrotation
							End Site
							{
								OFFSET 4.083176 0.000000 0.000000 
							}
						}
					}
				}
			}
			JOINT rCollar
			{
				OFFSET -3.470700 6.669187 -0.816635 
				CHANNELS 3 Yrotation Zrotation Xrotation
				JOINT rShldr
				{
					OFFSET -3.198488 0.000000 0.000000 
					CHANNELS 3 Zrotation Yrotation Xrotation
					JOINT rForeArm
					{
						OFFSET -10.139888 0.000000 0.000000 
						CHANNELS 3 Yrotation Zrotation Xrotation
						JOINT rHand
						{
							OFFSET -8.370511 0.000000 0.000000 
							CHANNELS 3 Zrotation Yrotation Xrotation
							End Site
							{
								OFFSET -4.083176 0.000000 0.000000 
							}
						}
					}
				}
			}
		}
	}
	JOINT lThigh
	{
		OFFSET 5.308129 -1.633274 1.361059 
		CHANNELS 3 Xrotation Zrotation Yrotation
		JOINT lShin
		{
			OFFSET -2.041588 -20.007561 0.000000 
			CHANNELS 3 Xrotation Zrotation Yrotation
			JOINT lFoot
			{
				OFFSET 0.000000 -19.190928 -1.224953 
				CHANNELS 3 Xrotation Yrotation Zrotation
				End Site
				{
					OFFSET 0.000000 -2.449906 4.627600 
				}
			}
		}
	}
	JOINT rThigh
	{
		OFFSET -5.308129 -1.633274 1.361059 
		CHANNELS 3 Xrotation Zrotation Yrotation
		JOINT rShin
		{
			OFFSET 2.041588 -20.007561 0.000000 
			CHANNELS 3 Xrotation Zrotation Yrotation
			JOINT rFoot
			{
				OFFSET 0.000000 -19.190928 -1.224953 
				CHANNELS 3 Xrotation Yrotation Zrotation
				End Site
				{
					OFFSET 0.000000 -2.449906 4.627600 
				}
			}
		}
	}
}
MOTION
Frames: 6
Frame Time: 0.016667
-0.277964 39.441242 0.109877 10.003700 2.962160 21.450300 -13.873600 -0.279829 -2.708520 22.225000 5.671440 -1.319300 -19.107599 10.779400 -0.295040 2.083380 9.490670 2.924130 2.000000 -2.000000 0.000000 -55.071602 -18.549200 -124.331001 107.940002 -0.169729 0.149165 0.176148 -0.167574 143.468994 -2.000000 2.000000 0.000000 57.417599 -0.098433 -127.685997 -114.824997 0.161548 0.105467 -0.147143 0.145454 158.039001 -17.804258 -0.490648 0.865893 22.328503 2.457536 1.871627 -4.691113 -4.510105 0.217199 -18.529905 -9.630640 -9.753870 41.001228 -2.425663 -2.929796 -28.103680 -18.988163 -11.711416 
-0.202736 39.421810 0.398841 8.259090 3.653230 22.297701 -13.743000 0.044572 -1.538240 21.283300 6.005380 -0.763212 -20.363701 10.716100 -2.453760 1.676870 9.606120 1.924030 2.000000 -2.000000 0.000000 -52.920601 -19.667000 -127.539001 111.055000 -0.162222 0.146506 0.161897 -0.154518 148.694000 -2.000000 2.000000 0.000000 58.338600 2.071960 -129.313004 -118.301003 0.154659 0.102023 -0.133446 0.138257 163.567001 -15.886189 -0.706978 1.172706 22.973051 2.578101 1.863123 -5.777019 -4.677805 0.015678 -15.887561 -9.294080 -9.534976 41.079346 -2.555714 -2.886871 -30.029562 -19.301807 -12.605528 
-0.088808 39.434681 0.737347 8.151450 3.654210 22.368900 -13.799200 0.398319 -0.097827 21.421101 6.190710 -0.042985 -19.643801 13.302800 -5.043790 2.186660 11.013700 1.153610 2.000000 -2.000000 0.000000 -50.142899 -23.232100 -134.229004 113.399002 -0.156675 0.144239 0.157021 -0.162838 150.509995 -2.000000 2.000000 0.000000 58.912300 7.243730 -132.975998 -121.094002 0.149284 0.098957 -0.127447 0.134545 166.085999 -15.456105 -0.691661 1.449111 23.228514 2.588238 1.890007 -6.502599 -4.397604 -0.028177 -15.142035 -8.761999 -8.594662 40.645348 -2.582571 -2.846136 -31.561754 -19.324245 -13.307091 
0.012271 39.412037 1.021099 8.433790 3.497020 22.510599 -13.989100 0.393124 1.241850 21.646299 5.858320 0.609698 -20.351999 15.246100 -7.724630 2.102060 12.067500 0.225000 2.000000 -2.000000 0.000000 -47.667400 -29.774200 -144.526993 112.940002 -0.157754 0.144701 0.157804 -0.163081 150.216995 -2.000000 2.000000 0.000000 59.723099 14.448400 -137.365997 -121.269997 0.148951 0.098756 -0.117829 0.127784 170.285004 -15.224379 -0.707981 1.101601 22.795864 2.581787 1.866852 -6.849292 -4.223564 -0.028095 -14.980768 -8.231302 -7.448475 40.388321 -2.612614 -2.831831 -33.021648 -19.365957 -14.044112 
0.286430 39.252190 1.045137 5.270530 5.727800 20.273899 -13.480100 -0.324111 3.526180 20.194401 4.130780 1.634130 -18.167200 19.240601 -10.081800 3.459900 13.906600 -0.319649 2.000000 -2.000000 0.000000 -44.876701 -36.634499 -151.709000 109.610001 -0.165687 0.147790 0.133607 -0.143640 159.533005 -2.000000 2.000000 0.000000 60.810001 23.820700 -141.242004 -119.033997 0.153235 0.101244 179.889008 179.878006 -6.599400 -10.966527 -1.828817 1.770635 23.603626 2.815172 1.849563 -8.711337 -2.772398 0.022377 -11.758061 -9.711311 -6.851075 41.708473 -2.773638 -2.827544 -33.009396 -18.024927 -12.833417 
0.344549 39.126328 1.089535 4.244600 6.320650 20.077900 -13.673600 -0.665408 4.552890 19.275299 3.212090 2.115810 -16.877899 20.941900 -11.755500 4.196470 14.657700 -1.030320 2.000000 -2.000000 0.000000 -43.598801 -44.175400 -161.440002 102.549004 -0.183021 0.152789 0.125954 -0.139571 162.628998 -2.000000 2.000000 0.000000 61.671501 34.728600 -146.166000 -112.871002 0.165506 0.107216 179.901993 179.889999 -0.046669 -9.753848 -2.086933 1.641578 24.113678 2.902385 1.829955 -8.480099 -2.446183 0.051575 -10.675435 -10.289802 -7.579473 42.294830 -2.798730 -2.846834 -33.713898 -17.137651 -12.501366 
